# xmcd CD database file
#
# Track frame offsets:
#	150
#	12710
#	24610
#	35412
#	54505
#	67730
#	82150
#	93982
#	106580
#	120355
#
# Disc length: 1797 seconds
#
# Revision: 3
# Processed by: cddbd v1.5.2PL0 Copyright (c) Steve Scherf et al.
# Submitted via: CDex 1.51
#
DISCID=7407030a
DTITLE=Andy Williams - Moon River
DYEAR=1990
DGENRE=Vocal - Standards
TTITLE0=Moon River
TTITLE1=Canadian Sunset
TTITLE2=Can't Get Used To Losing You
TTITLE3=You're The Best Thing That Ever Happened To Me
TTITLE4=Dear Heart
TTITLE5=Where Do I Begin (Theme from "Love Story")
TTITLE6=You're Nobody Till Somebody Loves You
TTITLE7=Days Of Wine And Roses
TTITLE8=Speak Softly Love (Theme from "The Godfather")
TTITLE9=It Might As Well Be Spring
EXTD=YEAR: 1990
EXTT0=
EXTT1=
EXTT2=
EXTT3=
EXTT4=
EXTT5=
EXTT6=
EXTT7=
EXTT8=
EXTT9=
PLAYORDER=
